Coordinates
version=1
nRows=16
nColumns=22
inDegrees=yes

Units are S.I. units (second, meters, Newtons, ...)
If the header above contains a line with 'inDegrees', this indicates whether rotational values are in degrees (yes) or radians (no).

endheader
time	pelvis_tilt	pelvis_list	pelvis_rotation	pelvis_tx	pelvis_ty	pelvis_tz	hip_flexion_r	hip_adduction_r	hip_rotation_r	knee_angle_r	ankle_angle_r	subtalar_angle_r	hip_flexion_l	hip_adduction_l	hip_rotation_l	knee_angle_l	ankle_angle_l	subtalar_angle_l	lumbar_extension	lumbar_bending	lumbar_rotation
      1.27000000	     -1.67724331	     -2.71140230	     -1.39473878	     -1.29056035	      0.97004831	     -0.63774343	     30.94757543	     -1.27827622	    -15.98260941	    -13.28313948	      7.80630908	      5.53708125	    -13.11614508	     -0.39276295	    -11.36519392	    -10.44331727	     21.91970273	      1.51431625	     -8.84459060	      0.43948959	     -5.84394703
      1.28000000	     -1.63142525	     -2.65595484	     -1.19234354	     -1.28320916	      0.96924638	     -0.63647419	     30.83927275	     -1.40776384	    -16.20984981	    -13.68365965	      7.68354469	      5.23282770	    -13.46354084	     -0.49639637	    -11.25095827	    -10.73589181	     21.72114383	      1.98125319	     -8.82174039	      0.51958996	     -5.99982696
      1.29000000	     -1.60904233	     -2.57449817	     -0.94270805	     -1.27560766	      0.96853430	     -0.63520961	     30.73241119	     -1.59123151	    -16.46738255	    -14.18831246	      7.58255024	      5.07891726	    -13.79176658	     -0.58844554	    -10.98293561	    -11.02758441	     21.38977619	      2.31222329	     -8.75424537	      0.58330360	     -6.22796599
      1.30000000	     -1.56799179	     -2.51442694	     -0.68735947	     -1.26775269	      0.96798015	     -0.63381946	     30.56694475	     -1.74790070	    -16.75389798	    -14.74484282	      7.43978417	      4.85702691	    -14.12014206	     -0.72581514	    -10.68941513	    -11.38390994	     21.03984809	      2.80303956	     -8.69577896	      0.66507604	     -6.42438688
      1.31000000	     -1.53842980	     -2.46275773	     -0.42510115	     -1.25962364	      0.96756251	     -0.63234398	     30.37383040	     -1.89247207	    -17.04584827	    -15.33590018	      7.24759143	      4.67068335	    -14.43511732	     -0.88598464	    -10.35438397	    -11.75847608	     20.58536438	      3.28096101	     -8.60431233	      0.76577707	     -6.64882541
      1.32000000	     -1.50068899	     -2.44344037	     -0.17315787	     -1.25121742	      0.96732264	     -0.63071271	     30.12700233	     -1.98558544	    -17.34526757	    -15.92175653	      6.98373359	      4.42589381	    -14.75251287	     -1.09651187	    -10.02956938	    -12.16576704	     20.06548991	      3.86198590	     -8.50457444	      0.89894317	     -6.86683321
      1.33000000	     -1.46531763	     -2.44143994	      0.07722204	     -1.24257281	      0.96727320	     -0.62896682	     29.84177366	     -2.04907031	    -17.65941321	    -16.47811838	      6.64736380	      4.17043865	    -15.05359180	     -1.33551028	     -9.63883127	    -12.61106153	     19.45060883	      4.39393683	     -8.38971937	      1.05303308	     -7.06491055
      1.34000000	     -1.42456777	     -2.47350766	      0.30662518	     -1.23368810	      0.96743846	     -0.62705625	     29.51830111	     -2.05633736	    -17.98483584	    -16.98905101	      6.23235200	      3.84494852	    -15.34653167	     -1.61917276	     -9.24707161	    -13.09368337	     18.74825522	      4.93371099	     -8.26972522	      1.24075397	     -7.23596251
      1.35000000	     -1.37597725	     -2.53295468	      0.52046287	     -1.22459791	      0.96784114	     -0.62500566	     29.16537430	     -2.02077930	    -18.32492559	    -17.44977274	      5.74518436	      3.45522377	    -15.61999269	     -1.94110665	     -8.85698996	    -13.63123945	     17.96277003	      5.46826238	     -8.15238831	      1.45762911	     -7.39220199
      1.36000000	     -1.32975438	     -2.64171778	      0.66682254	     -1.21526944	      0.96847332	     -0.62271222	     28.80168083	     -1.89071122	    -18.62231140	    -17.85480908	      5.18354682	      2.92518933	    -15.88634444	     -2.30979751	     -8.52316102	    -14.18982655	     17.07218468	      6.07919583	     -8.02067596	      1.71936387	     -7.47739098
      1.37000000	     -1.28774291	     -2.76786896	      0.77747973	     -1.20575288	      0.96932508	     -0.62027118	     28.44353373	     -1.72324922	    -18.89500565	    -18.23911951	      4.60432107	      2.35480288	    -16.11579061	     -2.69706416	     -8.20731865	    -14.80688790	     16.08145375	      6.69934864	     -7.87929845	      1.99992440	     -7.53794937
      1.38000000	     -1.25571083	     -2.90622351	      0.83151601	     -1.19604138	      0.97036423	     -0.61763023	     28.10590299	     -1.51126834	    -19.09703044	    -18.63246957	      4.04091703	      1.73100261	    -16.30657728	     -3.09344963	     -7.93574094	    -15.47652577	     14.98739907	      7.37067009	     -7.71926954	      2.28271301	     -7.54996611
      1.39000000	     -1.23966950	     -3.03804616	      0.83319675	     -1.18615220	      0.97155379	     -0.61482405	     27.80010465	     -1.27776510	    -19.21023831	    -19.06526411	      3.52830641	      1.10618410	    -16.44128628	     -3.47907406	     -7.70310243	    -16.21409330	     13.78089902	      8.07908259	     -7.53334658	      2.55197497	     -7.53605637
      1.40000000	     -1.24338311	     -3.15396823	      0.78366804	     -1.17610678	      0.97285433	     -0.61185457	     27.52888793	     -1.03038570	    -19.22169166	    -19.55035995	      3.09820348	      0.50386585	    -16.50668544	     -3.84594541	     -7.51605592	    -17.03077885	     12.46028285	      8.81878606	     -7.31709618	      2.79479156	     -7.50079585
      1.41000000	     -1.26647155	     -3.24842080	      0.69339152	     -1.16594556	      0.97423961	     -0.60874466	     27.28254984	     -0.77469703	    -19.12592727	    -20.07518908	      2.75377182	     -0.04729353	    -16.48853837	     -4.19197260	     -7.36718145	    -17.94328482	     11.02465819	      9.56467513	     -7.07245968	      3.00647627	     -7.46432207
      1.42000000	     -1.30541843	     -3.32579018	      0.56980252	     -1.15570726	      0.97568825	     -0.60550631	     27.04736434	     -0.50514900	    -18.93534447	    -20.61880275	      2.50520760	     -0.56269675	    -16.37785700	     -4.52639507	     -7.26589244	    -18.96504492	      9.47924668	     10.30988294	     -6.80404048	      3.19199050	     -7.43378436
